<?xml version="1.0" encoding="iso-8859-1"?>
<!-- Generator: Adobe Illustrator 23.0.2, SVG Export Plug-In . SVG Version: 6.00 Build 0)  -->
<svg version="1.1" id="Layer_1" xmlns="http://www.w3.org/2000/svg" xmlns:xlink="http://www.w3.org/1999/xlink" x="0px" y="0px"
	 viewBox="0 0 700 550" style="enable-background:new 0 0 700 550;" xml:space="preserve">
<g>
	<g>
		<path style="fill:#EFEDEF;" d="M563.557,365.799c-24.925,96.766-100.54,93.888-224.561,93.888s-224.561,6.036-224.561-93.888
			s107.494-139.98,224.561-180.928C515.412,123.164,600.504,222.362,563.557,365.799z"/>
		<path style="fill:none;stroke:#EFEDEF;stroke-width:2;stroke-miterlimit:10;" d="M332.63,173.948
			c191.46-66.97,283.81,40.69,243.71,196.35c-13.82,53.66-42,79.08-84.21,91.11"/>
	</g>
	<g>
		<polygon style="fill:#C38F86;" points="405.091,461.149 377.145,366.938 384.931,364.628 413.638,461.405 		"/>
	</g>
	<g>
		<polygon style="fill:#C38F86;" points="347.372,461.149 338.825,461.405 367.531,364.628 375.317,366.938 		"/>
	</g>
	<g>
		<rect x="372.113" y="359.011" style="fill:#C38F86;" width="8.121" height="102.413"/>
	</g>
	<path style="fill:#935B50;" d="M411.048,367.813h-76.205c-3.74,0-6.772-3.032-6.772-6.772l0,0c0-3.74,3.032-6.772,6.772-6.772
		h76.205c3.74,0,6.772,3.032,6.772,6.772l0,0C417.82,364.781,414.788,367.813,411.048,367.813z"/>
	<g>
		<path style="fill:#FFBA55;" d="M286.015,312.859v0.37c0,1.963-1.593,3.556-3.556,3.556h-10.682c-1.963,0-3.556-1.593-3.556-3.556
			v-14.395c0-1.963,1.593-3.556,3.556-3.556h10.682c1.963,0,3.556,1.593,3.556,3.556v0.114V312.859z"/>
		<g>
			<path style="fill:#025182;" d="M291.903,298.948h-5.889v2.134h4.822v9.644h-4.822v2.134h5.889c0.59,0,1.067-0.476,1.067-1.067
				v-11.778C292.97,299.424,292.494,298.948,291.903,298.948z"/>
		</g>
		<path style="fill:#935B50;" d="M280.826,307.06h-2.997c-0.393,0-0.711-0.318-0.711-0.711v-2.997c0-0.393,0.318-0.711,0.711-0.711
			h2.997c0.393,0,0.711,0.318,0.711,0.711v2.997C281.537,306.742,281.219,307.06,280.826,307.06z"/>
		
			<line style="fill:none;stroke:#E5CAF3;stroke-width:1.001;stroke-miterlimit:10;" x1="279.327" y1="302.641" x2="279.327" y2="295.278"/>
	</g>
	<path style="fill:#F9977A;" d="M306.445,433.991c0,0,0.734,24.008-1.18,24.44c-1.913,0.432-49.212-4.463-40.371-7.09l14.535-3.527
		c5.192-1.26,9.14-5.333,10.093-10.414l1.386-7.387L306.445,433.991z"/>
	<path style="fill:#F9977A;" d="M364.622,427.013c0,0,11.839,18.058,10.577,19.225c-1.262,1.167-39.769,18.084-34.235,12.21
		l9.47-9.05c3.383-3.233,4.492-8.075,2.835-12.381l-2.409-6.26L364.622,427.013z"/>
	<path style="fill:#6C7FD8;" d="M347.033,338.278c-4.985,3.847-2.65,8.444-0.574,14.266l22.702,77.509l-16.378,8.745l-38.972-76.618
		c0,0-12.788-15.574,3.507-26.305L347.033,338.278z"/>
	<path style="fill:#F9977A;" d="M355.343,302.553l-6.783-5.037c-0.965-0.717-2.116-1.161-3.328-1.284
		c-2.12-0.215-5.53-0.662-7.022-1.417c-1.448-0.733-2.179-0.096-1.439,1.31c0.435,0.828,1.968,1.919,5.981,3.209l-3.492,0.862
		c-1.045,0.258-2.154,0.082-3.058-0.485l-3.845-2.412c-0.493-0.309-1.147-0.22-1.531,0.209l0,0
		c-0.457,0.509-0.356,1.288,0.217,1.673l6.94,4.661c0,0-0.668,5.519,4.674,6.715c5.341,1.196,12.686-0.92,12.686-0.92V302.553z"/>
	<polygon style="fill:#6C7FD8;" points="328.503,313.092 351.575,311.68 327.828,279.232 305.274,280.712 	"/>
	<path style="fill:#F9977A;" d="M357.457,309.996l-12.004-10.159c0,0-6.463-1.915-10.185-3.399
		c-2.019-0.805-4.493-0.257-6.011,1.497c-1.392,1.608-1.342,3.23,2.53,5.786c5.791,3.823,8.743,5.232,10.488,5.737
		c0.604,0.175,3.981,1.463,3.981,1.463L357.457,309.996z"/>
	<g>
		<g>
			<path style="fill:#DD765E;" d="M341.973,301.54c-0.883-0.209-1.74-0.498-2.59-0.807c-0.852-0.304-1.682-0.662-2.503-1.043
				c-0.815-0.393-1.625-0.801-2.392-1.289c-0.768-0.481-1.523-0.998-2.172-1.636c1.568,0.902,3.174,1.666,4.797,2.43
				C338.73,299.97,340.365,300.706,341.973,301.54z"/>
		</g>
		<g>
			<path style="fill:#DD765E;" d="M340.434,303.673c-0.977-0.178-1.929-0.453-2.871-0.757c-0.945-0.299-1.865-0.673-2.771-1.08
				c-0.902-0.415-1.785-0.885-2.607-1.454c-0.814-0.566-1.625-1.209-2.136-2.074c0.686,0.716,1.517,1.235,2.36,1.717
				c0.851,0.47,1.718,0.917,2.612,1.314C336.795,302.163,338.615,302.89,340.434,303.673z"/>
		</g>
		<g>
			<path style="fill:#DD765E;" d="M338.509,305.325c-0.823-0.127-1.624-0.347-2.415-0.596c-0.793-0.244-1.565-0.554-2.325-0.887
				c-1.505-0.692-2.973-1.537-4.176-2.692c0.733,0.395,1.448,0.789,2.182,1.152c0.74,0.351,1.471,0.712,2.219,1.042L338.509,305.325
				z"/>
		</g>
	</g>
	<path style="fill:#F9977A;" d="M331.757,251.367l-7.682-3.643c-1.094-0.519-2.014-1.318-2.664-2.312
		c-1.137-1.739-3.059-4.492-4.421-5.449c-1.321-0.929-1.052-1.842,0.583-1.824c0.962,0.011,2.654,0.855,5.627,3.757l-0.741-3.402
		c-0.222-1.018-0.876-1.9-1.803-2.431l-3.943-2.261c-0.505-0.29-0.711-0.895-0.482-1.417l0,0c0.272-0.62,1.041-0.877,1.652-0.551
		l7.402,3.945c0,0,4.839-3.016,8.311,1.077c3.472,4.093,4.749,11.382,4.749,11.382L331.757,251.367z"/>
	<g>
		<g>
			<path style="fill:#DD765E;" d="M328.088,237.728c-0.55-0.217-1.012-0.547-1.487-0.857c-0.452-0.346-0.901-0.678-1.316-1.093
				c0.582,0.136,1.064,0.466,1.543,0.775C327.28,236.904,327.733,237.254,328.088,237.728z"/>
		</g>
		<g>
			<path style="fill:#DD765E;" d="M329.8,236.915c-0.489-0.317-0.884-0.704-1.316-1.048c-0.198-0.193-0.416-0.356-0.626-0.529
				c-0.213-0.171-0.427-0.334-0.69-0.454c0.298-0.04,0.593,0.073,0.851,0.201c0.262,0.132,0.493,0.31,0.719,0.487
				C329.156,235.965,329.551,236.383,329.8,236.915z"/>
		</g>
		<g>
			<path style="fill:#DD765E;" d="M331.89,236.845c-0.203-0.394-0.311-0.779-0.512-1.109c-0.167-0.354-0.396-0.61-0.778-0.841
				c0.22-0.042,0.459,0.016,0.661,0.142c0.202,0.128,0.339,0.324,0.46,0.515C331.914,235.962,332.007,236.409,331.89,236.845z"/>
		</g>
	</g>
	<path style="fill:#F9977A;" d="M387.399,198.741c-2.131-0.117-5.04-0.246-8.419,1.088c-1.254,0.495-5.839,2.304-7.901,6.667
		c-0.783,1.657-0.882,3.612-1.08,7.521c-0.124,2.442-1.008,4.227-0.86,7.191c0.083,1.664,0.491,4.123,1.563,7.018
		c1.308,3.532,0.68,5.601,1.277,6.245c2.405,2.595,9.196,0.16,9.474,3.678c0.172,2.172-1.53,2.657-1.258,5.196
		c0.353,3.291,11.278,0.988,14.455-0.811c0.433-0.245,4.347-2.982,3.717-6.81c-0.337-2.044-2.623-11.605-2.511-12.858
		c0.406-4.526,2.729-5.183,4.312-10.705c0.981-3.421-0.153-6.238-1.853-8.086C395.141,200.623,390.065,198.887,387.399,198.741z"/>
	
		<ellipse transform="matrix(0.9984 -0.0573 0.0573 0.9984 -11.8609 21.6087)" style="fill:#0A0709;" cx="371.156" cy="217.786" rx="0.948" ry="1.137"/>
	
		<ellipse transform="matrix(0.9984 -0.0573 0.0573 0.9984 -11.8245 22.0969)" style="fill:#0A0709;" cx="379.694" cy="217.393" rx="0.948" ry="1.137"/>
	<path style="fill:none;stroke:#1E1D22;stroke-width:1.1751;stroke-linecap:round;stroke-linejoin:round;stroke-miterlimit:10;" d="
		M369.131,215.264c0,0,2.852-2.291,6.401-0.294"/>
	<path style="fill:none;stroke:#1E1D22;stroke-width:1.1751;stroke-linecap:round;stroke-linejoin:round;stroke-miterlimit:10;" d="
		M377.979,214.857c0,0,2.852-2.291,6.401-0.294"/>
	<g>
		<path style="fill:#DD765E;" d="M376.384,215.743c0.295,0.93,0.257,1.987-0.112,2.916c-0.349,0.906-0.733,1.836-1.351,2.631
			c-0.298,0.408-0.719,0.709-0.639,1.106c0.039,0.401,0.385,0.783,0.732,1.049c0.75,0.534,1.792,0.563,2.74,0.436
			c-0.918,0.28-1.999,0.365-2.908-0.186c-0.434-0.28-0.819-0.678-0.917-1.257c-0.053-0.278,0.064-0.614,0.23-0.811l0.454-0.576
			c0.609-0.731,0.974-1.624,1.382-2.504C376.399,217.687,376.519,216.71,376.384,215.743z"/>
	</g>
	<g>
		<g>
			<path style="fill:#DD765E;" d="M391.919,215.414c0.711-0.135,1.422,0.224,1.964,0.664c0.264,0.24,0.497,0.509,0.691,0.801
				c0.188,0.297,0.341,0.612,0.439,0.948c-0.469-0.517-0.876-1.039-1.385-1.453c-0.238-0.224-0.508-0.406-0.789-0.572
				C392.556,215.64,392.255,215.502,391.919,215.414z"/>
		</g>
		<g>
			<path style="fill:#DD765E;" d="M392.922,220.114c-0.427-0.619-0.545-1.41-0.472-2.16c0.062-0.373,0.149-0.748,0.324-1.083
				c0.161-0.341,0.392-0.643,0.66-0.898c-0.135,0.348-0.287,0.669-0.38,1.009c-0.107,0.334-0.187,0.673-0.215,1.019
				C392.732,218.69,392.803,219.388,392.922,220.114z"/>
		</g>
	</g>
	<path style="fill:#1E1D22;" d="M378.782,237.722c0,0,6.691-0.188,10.26-5.489c1.702-2.527,1.462-7.47,1.141-10.337
		c-0.144-1.286,0-2.585,0.429-3.81c0.594-1.693,1.311-3.995,2.988-4.223c1.236-0.168,1.719-0.507,2.224,0.628
		c0.833,1.878-0.346,4.046-1.167,5.557c-1.176,2.161-2.239,2.67-2.187,4.125c0.04,1.11,3.435,3.211,4.036,2.749
		c1.225-0.942,0.4-3.557,3.55-10.015c1.99-4.078,2.958-4.871,3.089-7.366c0.046-0.886,0.238-4.553-2.145-6.571
		c-1.105-0.936-1.691-0.608-6.378-2.273c-1.764-0.627-2.646-0.94-3.818-1.489c-3.755-1.759-3.722-2.755-5.893-3.243
		c-1.961-0.441-2.036,0.361-5.74,0.32c-3.571-0.039-3.925-0.79-5.549-0.261c-2.82,0.918-4.047,3.925-4.376,4.733
		c-0.372,0.911-1.099,2.646-0.884,4.485c0.165,1.404,1.134,3.506,1.95,4.235c0.487,0.435,2.24-2.281,3.217-3.318
		c0.958-1.015,2.121-0.671,3.683-0.649c1.523,0.021,1.485,0.937,3.771,1.635c0.814,0.248,3.953-1.285,5.073,0.379
		c1.193,1.773,2.062,1.955,1.628,3.675c-0.271,1.075-0.006,2.368,0.523,4.955c0.38,1.856-0.866,8.459-0.866,8.459
		c-0.524,1.171-1.94,1.697-3.138,1.183c-1.463-0.634-3.456-1.418-5.366-1.95c-2.211-0.624-4.592-0.234-6.496,1.021
		c-0.652,0.426-1.319,0.901-1.845,1.326c-0.716,0.58-1.07,1.444-0.978,2.338C369.853,231.324,371.399,238.125,378.782,237.722z
		 M371.948,228.277c0.209-1.348,2.248-1.962,3.413-2.311c0.842-0.248,1.778-0.534,2.894-0.232c0.23,0.057,2.316,0.643,2.581,2.229
		c0.265,1.586-1.524,2.783-1.805,2.964c-1.36,0.902-3.157,0.991-4.591,0.352C373.355,230.799,371.743,229.572,371.948,228.277z"/>
	<path style="fill:#0A0709;" d="M379.918,227.804c0,0-3.563,3.526-7.064,0.325"/>
	<path style="fill:#F73C4F;" d="M338.714,244.035c8.966,3.618,22.51,20.115,22.51,20.115l15.426-14.287l3.46-8.342l13.867-3.647
		c2.486-0.654,4.1-2.998,3.7-5.453c-0.005-0.033-0.011-0.066-0.017-0.099l7.666,12.295c6.058,9.716,7.896,20.921,7.023,32.227
		l-2.671,46.914c0,0-43.495,5.151-41.587,0l0.347-8.28l-4.734-0.551l-10.301-2.024l1.335-12.51l10.683-0.368l4.006-3.128
		l0.428-13.072l-2.366,0.392c-6.204,1.027-13.72-1.777-17.593-6.562l-19.004-24.543C332.8,245.937,338.714,244.035,338.714,244.035z
		"/>
	<g>
		<g>
			<path style="fill:#B02336;" d="M401.943,239.191c-1.486,0.93-2.982,1.839-4.506,2.695c-1.517,0.869-3.036,1.735-4.575,2.562
				c-3.076,1.658-6.176,3.269-9.318,4.801l-0.412,0.201l-0.159-0.401l-1.482-3.741c-0.47-1.257-0.951-2.51-1.382-3.785
				c0.65,1.178,1.25,2.378,1.861,3.574l1.761,3.618l-0.571-0.2c3.055-1.698,6.151-3.317,9.272-4.889
				c1.559-0.788,3.139-1.537,4.72-2.283C398.728,240.582,400.33,239.876,401.943,239.191z"/>
		</g>
		<g>
			<path style="fill:#B02336;" d="M369.427,296.898c1.472-0.639,3.016-1.096,4.561-1.522c1.548-0.422,3.105-0.808,4.669-1.166
				c3.128-0.716,6.271-1.36,9.428-1.945l-0.184,0.226l-0.841-18.74c-0.135-3.122-0.198-6.287,0.164-9.427
				c0.342-3.13,1.058-6.295,2.674-9.106c0.829-1.381,1.92-2.649,3.299-3.55c1.373-0.901,2.992-1.429,4.618-1.523
				c3.266-0.262,6.581,1.062,8.843,3.412c0.578,0.578,1.06,1.243,1.505,1.927c0.414,0.697,0.781,1.454,1.046,2.192
				c0.573,1.481,1.048,2.996,1.416,4.533c0.749,3.073,1.185,6.205,1.415,9.342c0.453,6.281,0.161,12.576-0.517,18.809
				c-0.334,3.118-0.789,6.221-1.302,9.312c-0.494,3.213-2.546,6.129-5.351,7.724c-0.689,0.407-1.454,0.736-2.182,0.995l-2.203,0.815
				c-1.472,0.536-2.953,1.044-4.439,1.538c-2.975,0.978-5.977,1.882-9.021,2.626c-3.042,0.748-6.116,1.374-9.221,1.783
				c-3.103,0.402-6.247,0.601-9.365,0.326c3.123,0.203,6.252-0.069,9.335-0.54c3.084-0.479,6.132-1.173,9.143-1.988
				c3.009-0.824,5.993-1.741,8.943-2.76c1.474-0.512,2.943-1.036,4.402-1.59l2.184-0.841c0.74-0.276,1.413-0.578,2.066-0.973
				c2.613-1.536,4.472-4.261,4.893-7.252c0.478-3.082,0.931-6.168,1.246-9.269c0.647-6.196,0.908-12.444,0.434-18.642
				c-0.24-3.096-0.684-6.176-1.428-9.177c-0.354-1.505-0.811-2.982-1.359-4.418c-0.513-1.442-1.282-2.724-2.328-3.806
				c-2.064-2.16-5.096-3.388-8.088-3.16c-1.496,0.081-2.95,0.554-4.191,1.36c-1.247,0.807-2.253,1.957-3.034,3.246
				c-1.531,2.625-2.243,5.691-2.604,8.752c-0.395,3.075-0.375,6.185-0.28,9.306l0.573,18.748l0.006,0.196l-0.19,0.031
				c-3.161,0.51-6.316,1.082-9.455,1.725c-1.57,0.322-3.133,0.672-4.688,1.057C372.464,295.873,370.913,296.293,369.427,296.898z"/>
		</g>
		<g>
			<path style="fill:#B02336;" d="M376.65,249.864c-0.454,1.388-0.967,2.752-1.449,4.129c-0.515,1.367-1.032,2.718-1.466,4.099
				c-0.877,2.756-1.597,5.557-2.079,8.402c-0.53,2.844-0.714,5.711-0.944,8.627l-0.376,4.355c-0.162,1.45-0.289,2.901-0.482,4.35
				c-0.034-1.461-0.004-2.917-0.008-4.376l0.098-4.37c0.028-1.456,0.082-2.91,0.181-4.381c0.115-1.465,0.302-2.925,0.546-4.375
				c0.516-2.895,1.277-5.749,2.342-8.486C374.084,255.095,375.366,252.489,376.65,249.864z"/>
		</g>
		<g>
			<path style="fill:#B02336;" d="M361.224,264.15c-0.296,1.764-0.623,3.437-0.824,5.136c-0.123,0.845-0.179,1.694-0.239,2.549
				c-0.064,0.859-0.043,1.714-0.082,2.618c-0.369-0.815-0.616-1.699-0.698-2.596c-0.101-0.896-0.084-1.804,0.027-2.696
				c0.123-0.891,0.313-1.771,0.614-2.615C360.319,265.703,360.695,264.881,361.224,264.15z"/>
		</g>
		<g>
			<path style="fill:#B02336;" d="M397.47,299.842c-1.467-1.435-2.868-2.828-4.388-4.087c-0.749-0.642-1.547-1.21-2.358-1.771
				c-0.822-0.55-1.688-1.014-2.602-1.501c2.071,0.16,4.013,1.193,5.599,2.503c0.787,0.674,1.519,1.409,2.152,2.223
				C396.507,298.019,397.073,298.887,397.47,299.842z"/>
		</g>
		<g>
			<path style="fill:#B02336;" d="M406.817,310.512c-0.224,1.046-0.678,2.029-1.239,2.944c-0.561,0.918-1.271,1.749-2.086,2.475
				c-0.822,0.718-1.793,1.278-2.825,1.637c-1.029,0.382-2.152,0.433-3.198,0.303c1.032-0.288,2.009-0.544,2.899-1.024
				c0.882-0.47,1.726-1.001,2.471-1.673C404.354,313.86,405.613,312.253,406.817,310.512z"/>
		</g>
		<g>
			<path style="fill:#B02336;" d="M405.673,316.4c-0.394,0.965-1.09,1.788-1.877,2.477c-0.79,0.697-1.71,1.235-2.673,1.659
				c-0.982,0.375-1.999,0.668-3.039,0.762c-0.514,0.08-1.04,0.05-1.554,0.063c-0.518-0.031-1.033-0.09-1.539-0.178
				c0.506-0.134,1.005-0.207,1.498-0.311c0.489-0.127,0.981-0.201,1.457-0.342c0.961-0.241,1.888-0.555,2.793-0.917
				C402.53,318.847,404.204,317.834,405.673,316.4z"/>
		</g>
		<g>
			<path style="fill:#B02336;" d="M365.421,300.026c0.552,1.993,0.799,4.01,0.975,6.032c0.145,2.025,0.215,4.056-0.021,6.11
				c-0.554-1.993-0.802-4.01-0.975-6.032C365.258,304.111,365.187,302.08,365.421,300.026z"/>
		</g>
		<g>
			<path style="fill:#B02336;" d="M343.982,247.134c-1.16,1.846-2.545,3.484-3.983,5.075c-1.461,1.569-2.977,3.088-4.719,4.398
				c1.158-1.847,2.543-3.486,3.983-5.075C340.726,249.965,342.241,248.446,343.982,247.134z"/>
		</g>
	</g>
	
		<line style="fill:none;stroke:#7CA1B1;stroke-width:0.3903;stroke-miterlimit:10;" x1="325.136" y1="277.385" x2="325.136" y2="266.002"/>
	
		<line style="fill:none;stroke:#7CA1B1;stroke-width:0.3903;stroke-miterlimit:10;" x1="342.941" y1="292.483" x2="355.343" y2="287.323"/>
	
		<line style="fill:none;stroke:#7CA1B1;stroke-width:0.3903;stroke-miterlimit:10;" x1="337.145" y1="283.077" x2="341.973" y2="271.693"/>
	<path style="fill:#6C7FD8;" d="M409.679,323.759c0,0,1.215,11.531-6.424,22.565c-4.401,6.357-11.886,10.092-19.812,10.07
		l-37.641-0.108c-6.378,0.288-11.806,0.226-13.674,6.114l-24.267,76.502l-18.58-2.205l15.15-84.08c0,0,0.571-16.742,18.866-19.297
		l44.306-7.994l0.688-6.307L409.679,323.759z"/>
	
		<line style="fill:none;stroke:#5E7C24;stroke-width:0.3903;stroke-miterlimit:10;" x1="367.602" y1="325.325" x2="376.65" y2="319.976"/>
	<g>
		<path style="fill:#065082;" d="M325.135,384.442c0.354-3.468,0.735-6.933,1.14-10.395c0.297-3.484,1.359-6.938,3.172-9.955
			c1.818-2.986,4.442-5.635,7.776-6.888c0.831-0.3,1.676-0.556,2.57-0.631c0.886-0.074,1.762,0,2.63,0.069
			c1.724,0.154,3.497,0.327,5.172-0.221c-1.652,0.615-3.46,0.512-5.186,0.426c-0.868-0.043-1.739-0.1-2.591-0.009
			c-0.844,0.088-1.68,0.36-2.478,0.669c-3.215,1.283-5.773,3.854-7.53,6.804c-1.802,2.954-2.85,6.324-3.204,9.778
			C326.142,377.543,325.652,380.994,325.135,384.442z"/>
	</g>
	<g>
		<rect x="463.704" y="324.409" style="fill:#935B50;" width="8.637" height="136.999"/>
		<path style="fill:#935B50;" d="M487.387,324.409H230.818c-0.822,0-1.489-0.667-1.489-1.489v-3.646
			c0-0.822,0.667-1.489,1.489-1.489h256.568c0.822,0,1.489,0.667,1.489,1.489v3.646
			C488.876,323.742,488.209,324.409,487.387,324.409z"/>
		<rect x="246.554" y="324.409" style="fill:#935B50;" width="8.637" height="136.999"/>
		<path style="fill:#C38F86;" d="M476.154,346.075H242.642c-1.645,0-2.978-1.333-2.978-2.978v-18.688h239.468v18.688
			C479.132,344.741,477.798,346.075,476.154,346.075z"/>
	</g>
	<g>
		<path style="fill:#FFBA55;" d="M305.356,182.982h-73.644c-1.105,0-2-0.895-2-2v-79.727c0-1.105,0.895-2,2-2H319
			c1.105,0,2,0.895,2,2v66.675L305.356,182.982z"/>
		<g>
			<path style="fill:#FFBA55;" d="M319,182.982c1.105,0,2-0.895,2-2V167.93l-15.644,15.052H319z"/>
		</g>
		<g>
			<g>
				<path style="fill:#E6952A;" d="M245.356,108.635c-0.829,0-1.5-0.671-1.5-1.5v-14.4c0-0.829,0.671-1.5,1.5-1.5s1.5,0.671,1.5,1.5
					v14.4C246.856,107.963,246.184,108.635,245.356,108.635z"/>
			</g>
			<g>
				<path style="fill:#E6952A;" d="M235.356,108.635c-0.829,0-1.5-0.671-1.5-1.5v-14.4c0-0.829,0.671-1.5,1.5-1.5s1.5,0.671,1.5,1.5
					v14.4C236.856,107.963,236.184,108.635,235.356,108.635z"/>
			</g>
			<g>
				<path style="fill:#E6952A;" d="M255.356,108.635c-0.829,0-1.5-0.671-1.5-1.5v-14.4c0-0.829,0.671-1.5,1.5-1.5s1.5,0.671,1.5,1.5
					v14.4C256.856,107.963,256.184,108.635,255.356,108.635z"/>
			</g>
			<g>
				<path style="fill:#E6952A;" d="M265.356,108.635c-0.829,0-1.5-0.671-1.5-1.5v-14.4c0-0.829,0.671-1.5,1.5-1.5s1.5,0.671,1.5,1.5
					v14.4C266.856,107.963,266.184,108.635,265.356,108.635z"/>
			</g>
			<g>
				<path style="fill:#E6952A;" d="M275.356,108.635c-0.829,0-1.5-0.671-1.5-1.5v-14.4c0-0.829,0.671-1.5,1.5-1.5s1.5,0.671,1.5,1.5
					v14.4C276.856,107.963,276.184,108.635,275.356,108.635z"/>
			</g>
			<g>
				<path style="fill:#E6952A;" d="M285.356,108.635c-0.829,0-1.5-0.671-1.5-1.5v-14.4c0-0.829,0.671-1.5,1.5-1.5s1.5,0.671,1.5,1.5
					v14.4C286.856,107.963,286.184,108.635,285.356,108.635z"/>
			</g>
			<g>
				<path style="fill:#E6952A;" d="M295.356,108.635c-0.829,0-1.5-0.671-1.5-1.5v-14.4c0-0.829,0.671-1.5,1.5-1.5s1.5,0.671,1.5,1.5
					v14.4C296.856,107.963,296.184,108.635,295.356,108.635z"/>
			</g>
			<g>
				<path style="fill:#E6952A;" d="M305.356,108.635c-0.829,0-1.5-0.671-1.5-1.5v-14.4c0-0.829,0.671-1.5,1.5-1.5s1.5,0.671,1.5,1.5
					v14.4C306.856,107.963,306.184,108.635,305.356,108.635z"/>
			</g>
			<g>
				<path style="fill:#E6952A;" d="M315.356,108.635c-0.829,0-1.5-0.671-1.5-1.5v-14.4c0-0.829,0.671-1.5,1.5-1.5s1.5,0.671,1.5,1.5
					v14.4C316.856,107.963,316.184,108.635,315.356,108.635z"/>
			</g>
		</g>
		<polygon style="fill:#E6952A;" points="320.93,167.858 305.287,168.003 305.425,183.054 		"/>
		<circle style="fill:#E6952A;" cx="283.856" cy="124.135" r="6.48"/>
		<circle style="fill:#E6952A;" cx="301.836" cy="124.135" r="6.48"/>
		<circle style="fill:#E6952A;" cx="246.444" cy="140.135" r="6.48"/>
		<circle style="fill:#E6952A;" cx="265.356" cy="140.135" r="6.48"/>
		<circle style="fill:#E6952A;" cx="283.856" cy="140.135" r="6.48"/>
		<circle style="fill:#E6952A;" cx="301.836" cy="140.135" r="6.48"/>
		<circle style="fill:#E6952A;" cx="246.444" cy="156.135" r="6.48"/>
		<circle style="fill:#E6952A;" cx="265.356" cy="156.135" r="6.48"/>
		<circle style="fill:#E6952A;" cx="283.856" cy="156.135" r="6.48"/>
		<circle style="fill:#E6952A;" cx="301.836" cy="156.135" r="6.48"/>
		<circle style="fill:#E6952A;" cx="246.444" cy="171.135" r="6.48"/>
		<g>
			<g>
				<path style="fill:#AF2F2F;" d="M261.59,149.796c1.693,1.853,3.046,3.908,4.32,6.01c0.618,1.062,1.222,2.133,1.761,3.242
					c0.546,1.105,1.053,2.233,1.45,3.427c-0.858-0.919-1.607-1.904-2.316-2.912c-0.716-1.004-1.367-2.047-2.004-3.097
					C263.564,154.34,262.407,152.169,261.59,149.796z"/>
			</g>
			<g>
				<path style="fill:#AF2F2F;" d="M269.121,149.796c-0.818,2.373-1.975,4.544-3.211,6.668c-0.637,1.051-1.289,2.093-2.005,3.097
					c-0.709,1.008-1.457,1.993-2.316,2.912c0.397-1.194,0.904-2.322,1.45-3.427c0.539-1.109,1.143-2.179,1.761-3.242
					C266.075,153.703,267.429,151.649,269.121,149.796z"/>
			</g>
		</g>
	</g>
	<path style="fill:#F73C4F;" d="M342.815,461.877c-3.155-2.107-3.585-6.308-0.992-9.538l10.903-13.586
		c0.418-0.47,1.116-0.642,1.655-0.409l7.762,3.362c0.57,0.247,1.311,0.039,1.716-0.482l4.527-5.828
		c0.614-0.791,1.873-0.778,2.249,0.023l4.597,9.802c0.267,0.569-0.059,1.285-0.728,1.598l-31.679,15.063
		C342.825,461.884,342.821,461.881,342.815,461.877z"/>
	<path style="fill:#F73C4F;" d="M263.899,454.24c-1.835-3.683,0.281-7.668,4.786-9.056l18.953-5.841
		c0.696-0.178,1.487,0.068,1.878,0.585l5.616,7.441c0.413,0.547,1.268,0.786,1.982,0.555l7.983-2.592
		c1.083-0.352,2.316,0.382,2.202,1.31l-1.395,11.358c-0.081,0.659-0.835,1.109-1.683,1.005l-40.315-4.752
		C263.905,454.252,263.903,454.248,263.899,454.24z"/>
	<g>
		<g>
			<polygon style="fill:#F58A97;" points="481.703,197.221 482.873,195.599 438.008,163.235 424.443,163.235 424.443,165.235 
				437.362,165.235 			"/>
		</g>
		<g>
			<path style="fill:#FEC165;" d="M482.287,198.345c0.601,0,1.192-0.279,1.572-0.803c0.625-0.867,0.43-2.077-0.437-2.703
				l-9.299-6.708c-0.867-0.625-2.076-0.431-2.703,0.437c-0.625,0.867-0.43,2.077,0.437,2.703l9.299,6.708
				C481.498,198.227,481.894,198.345,482.287,198.345z"/>
		</g>
		<g>
			<rect x="457.167" y="178.832" style="fill:#F58A97;" width="2" height="123.859"/>
		</g>
		<path style="fill:#FEC165;" d="M420.378,181.774l-11.964-8.944c0,0,4.065-10.686,16.61-9.176
			C425.024,163.654,427.812,176.199,420.378,181.774z"/>
		<polygon style="fill:#FEC165;" points="440.047,316.513 476.287,316.513 458.167,302.407 		"/>
		<path style="fill:#FEC165;" d="M457.192,180.806h1.949c0.552,0,1-0.448,1-1v-1.949c0-0.552-0.448-1-1-1h-1.949
			c-0.552,0-1,0.448-1,1v1.949C456.192,180.359,456.64,180.806,457.192,180.806z"/>
	</g>
	<g>
		<path style="fill:#F9977A;" d="M138.724,437.71c0,0-3.708,18.365-2.346,18.941s37.078,2.823,30.868-0.32l-10.313-4.559
			c-3.684-1.628-6.074-5.262-6.111-9.289l-0.054-5.856L138.724,437.71z"/>
		<path style="fill:#F9977A;" d="M190.834,439.544c0,0-2.527,18.565-1.131,19.052c1.396,0.487,37.183,0.449,30.785-2.292
			l-10.583-3.891c-3.78-1.39-6.398-4.863-6.692-8.88l-0.428-5.84L190.834,439.544z"/>
		<path style="fill:#FFBA55;" d="M149,253.235c0,0-3.686,29.076-1.964,103.619l-11.737,76.577c-0.244,2.503,1.572,4.737,4.072,5.009
			l11.255,1.227c2.183,0.238,4.228-1.103,4.881-3.199l22.336-71.7l9.873,71.899c0.312,2.273,2.254,3.967,4.549,3.967h11.532
			c2.452,0,4.471-1.924,4.586-4.373c1.143-24.4,5.841-144.055-9.713-184.052L149,253.235z"/>
		<g>
			<g>
				<path style="fill:#E6952A;" d="M177.843,364.769c0.819-7.408,1.724-14.803,2.63-22.198l2.774-22.175l2.809-22.168
					c0.472-3.694,0.909-7.392,1.326-11.092c0.379-3.7,0.915-7.4,0.875-11.125c0.266,3.729-0.174,7.454-0.387,11.172
					c-0.319,3.714-0.67,7.425-1.05,11.132c-0.773,7.413-1.676,14.811-2.582,22.207c-0.98,7.387-1.937,14.776-3.006,22.151
					C180.167,350.047,179.07,357.418,177.843,364.769z"/>
			</g>
			<g>
				<path style="fill:#E6952A;" d="M206.364,346.422c-0.838,1.71-1.446,3.5-1.899,5.304c-0.429,1.81-0.645,3.661-0.541,5.492
					c0.008,0.922,0.201,1.818,0.362,2.722c0.269,0.873,0.475,1.778,0.895,2.603c0.691,1.725,1.825,3.227,2.984,4.744
					c-0.357-0.312-0.71-0.633-1.057-0.965c-0.344-0.334-0.724-0.641-1.004-1.034l-0.887-1.149c-0.308-0.379-0.487-0.838-0.738-1.256
					c-0.527-0.831-0.772-1.791-1.111-2.71c-0.204-0.958-0.415-1.92-0.442-2.903c-0.091-1.956,0.188-3.917,0.791-5.756
					C204.316,349.676,205.195,347.933,206.364,346.422z"/>
			</g>
			<g>
				<path style="fill:#E6952A;" d="M152.443,295.883c0.095,2.067,0.302,4.111,0.564,6.137c0.281,2.024,0.645,4.031,1.2,5.98
					c0.544,1.947,1.26,3.852,2.282,5.584c1.013,1.736,2.362,3.284,4.081,4.447c-1.907-0.816-3.566-2.271-4.739-4.027
					c-1.216-1.738-2.008-3.724-2.587-5.734c-0.555-2.023-0.885-4.095-1.011-6.172C152.099,300.022,152.152,297.935,152.443,295.883z
					"/>
			</g>
			<g>
				<path style="fill:#E6952A;" d="M150.095,309.106c0.162,2.017,0.706,3.951,1.44,5.782c0.752,1.825,1.726,3.549,2.925,5.109
					c0.634,0.75,1.223,1.545,1.955,2.211c0.353,0.344,0.682,0.716,1.056,1.039l1.136,0.958c0.365,0.339,0.773,0.623,1.18,0.909
					l1.213,0.88c0.825,0.567,1.706,1.048,2.547,1.623c-0.938-0.37-1.874-0.77-2.797-1.201c-0.868-0.524-1.808-0.958-2.615-1.589
					c-1.705-1.145-3.169-2.623-4.469-4.221c-1.243-1.649-2.232-3.493-2.862-5.453C150.164,313.203,149.868,311.125,150.095,309.106z
					"/>
			</g>
			<g>
				<path style="fill:#E6952A;" d="M164.965,271.444c-0.274,1.521-0.566,3.038-0.918,4.538c-0.341,1.503-0.674,3.009-1.057,4.501
					l-0.05,0.192l-0.188,0.099c-2.512,1.312-5.044,2.583-7.61,3.788c-1.275,0.619-2.582,1.172-3.872,1.76
					c-1.293,0.582-2.607,1.123-3.93,1.643c1.211-0.747,2.432-1.472,3.673-2.158c1.245-0.678,2.471-1.393,3.731-2.041
					c2.503-1.329,5.04-2.593,7.597-3.815l-0.238,0.29c0.422-1.481,0.896-2.949,1.361-4.418
					C163.919,274.352,164.433,272.896,164.965,271.444z"/>
			</g>
			<g>
				<path style="fill:#E6952A;" d="M201.562,264.431c-3.999,1.976-8.234,3.457-12.535,4.663c-4.31,1.195-8.729,1.98-13.18,2.473
					l-3.351,0.253l-3.361,0.051c-1.12,0.049-2.239-0.047-3.358-0.1c-1.118-0.075-2.241-0.073-3.347-0.276
					c-4.464-0.46-8.814-1.671-12.967-3.266c1.081,0.28,2.156,0.567,3.225,0.865c0.537,0.141,1.066,0.307,1.607,0.427l1.64,0.288
					c1.092,0.188,2.171,0.444,3.269,0.583l3.302,0.338c4.407,0.298,8.846,0.377,13.244-0.156c4.406-0.405,8.772-1.195,13.085-2.22
					c2.156-0.517,4.3-1.095,6.417-1.761C197.387,265.973,199.48,265.225,201.562,264.431z"/>
			</g>
			<g>
				<path style="fill:#E6952A;" d="M195.008,268.569c-0.012-1.531-0.287-2.906-0.722-4.257c-0.225-0.672-0.493-1.333-0.793-1.994
					c-0.297-0.664-0.643-1.311-0.952-2.026c0.629,0.448,1.179,1,1.626,1.633c0.463,0.624,0.802,1.336,1.068,2.074
					c0.229,0.751,0.372,1.535,0.347,2.322C195.56,267.101,195.41,267.898,195.008,268.569z"/>
			</g>
			<g>
				<path style="fill:#E6952A;" d="M159.571,272.786c-0.304-0.954-0.42-1.952-0.444-2.948c-0.024-0.999,0.07-2.002,0.276-2.991
					c0.232-0.982,0.569-1.951,1.077-2.835c0.524-0.874,1.22-1.655,2.066-2.187c-0.557,0.835-1.003,1.661-1.365,2.531
					c-0.331,0.883-0.6,1.781-0.801,2.705C159.974,268.913,159.789,270.812,159.571,272.786z"/>
			</g>
		</g>
		<path style="fill:#6C7FD8;" d="M162.927,169.504l18.748,1.049c0,0,25.049,1.871,25.015,23.497l2.14,20.572
			c0,0,2.723,4.089,4.173,9.417c2.451,9.013-0.637,17.313-9.747,19.373l0.788,13.807c0.169,2.969-1.805,5.629-4.694,6.333
			c-9.058,2.207-28.115,6.334-37.119,4.441l-14.439-3.565l0.084-27.362c0,0-26.536,7.688-24.03-7.687
			c2.019-12.391,8.304-35.535,16.483-49.019c2.903-4.786,7.748-8.067,13.25-9.1L162.927,169.504z"/>
		<path style="fill:#F9977A;" d="M162.231,219.772c0,0,10.236-10.467,21.038-6.165l-17.221,16.173L162.231,219.772z"/>
		<g>
			<path style="fill:#065082;" d="M195.75,200.49c-0.049,2.485-0.122,4.969-0.229,7.451l-0.359,7.444l-0.473,7.437
				c-0.172,2.478-0.375,4.955-0.605,7.43c0.048-2.485,0.122-4.969,0.228-7.451l0.36-7.444l0.473-7.437
				C195.318,205.442,195.522,202.965,195.75,200.49z"/>
		</g>
		<g>
			<path style="fill:#065082;" d="M130.931,220.372c5.215-0.186,10.43-0.35,15.647-0.458l15.648-0.378l0.165-0.004l0.06,0.156
				c1.452,3.757,2.843,7.537,4.267,11.304l0.073,0.193l-0.196,0.062l-10.91,3.45c-3.631,1.167-7.29,2.247-10.934,3.374
				c3.617-1.21,7.219-2.466,10.85-3.636l10.875-3.559l-0.122,0.255c-1.446-3.759-2.926-7.505-4.344-11.275l0.225,0.152
				l-15.651,0.222C141.367,220.322,136.15,220.358,130.931,220.372z"/>
		</g>
		<g>
			<path style="fill:#065082;" d="M149.115,197.881c-0.004,3.706-0.198,7.401-0.375,11.097c-0.235,3.693-0.454,7.386-0.865,11.069
				c0.002-3.706,0.197-7.401,0.375-11.097C148.486,205.258,148.706,201.564,149.115,197.881z"/>
		</g>
		<g>
			<path style="fill:#065082;" d="M189.187,237.971c0.573,1.052,1.253,2.033,2.018,2.93c0.77,0.89,1.63,1.703,2.623,2.313
				c0.962,0.666,2.094,1.026,3.24,1.201c1.159,0.219,2.34,0.02,3.523-0.164c-1.126,0.38-2.338,0.687-3.565,0.54
				c-1.215-0.104-2.427-0.495-3.459-1.161c-1.023-0.677-1.925-1.524-2.655-2.493C190.188,240.165,189.577,239.109,189.187,237.971z"
				/>
		</g>
		<g>
			<path style="fill:#065082;" d="M198.108,226.289c1.637-2.082,3.415-4.035,5.18-6c1.808-1.925,3.604-3.861,5.542-5.668
				c-1.636,2.083-3.414,4.036-5.18,6C201.841,222.546,200.044,224.481,198.108,226.289z"/>
		</g>
		<polygon style="fill:#025182;" points="207.646,212.674 180.2,213.725 159.366,237.36 189.318,235.627 		"/>
		<path style="fill:#F9977A;" d="M194.239,238.527c-2.761,0.134-7.998-0.013-12.225-2.477l-1.135-0.834
			c-0.737-0.542-1.577-0.919-2.472-1.109c-2.249-0.477-6.689-1.461-8.297-2.111c-0.402-0.162-0.656-0.559-0.632-0.991l0,0
			c0.307-0.591,1.091-0.955,1.741-0.809l7.38,1.658l-5.088-3.719c-0.695-0.508-0.745-1.527-0.104-2.101l0.023-0.021
			c0.43-0.385,1.04-0.467,1.549-0.209c2.775,1.408,11.487,5.635,10.847,2.928l-4.32-4.371c-0.224-0.226-0.337-0.54-0.309-0.857l0,0
			c0.062-0.718,0.793-1.177,1.466-0.922l0.701,0.265c0.095,0.036,0.184,0.085,0.266,0.146l5.005,3.739
			c0.436,0.326,0.953,0.53,1.496,0.567c1.08,0.075,2.887-0.087,4.214-1.676c1.21-1.449,2.147-2.554,2.702-3.205
			c0.307-0.36,0.855-0.379,1.189-0.043v0c0.172,0.173,0.256,0.415,0.23,0.658l-0.917,8.353c0,0,0.635,2.125,0.221,4.192
			C197.434,237.25,195.942,238.444,194.239,238.527z"/>
		<path style="fill:#F9977A;" d="M176.749,130.368c2.235-0.109,5.287-0.224,8.817,1.255c1.31,0.549,6.101,2.555,8.225,7.316
			c0.807,1.808,0.893,3.934,1.066,8.185c0.108,2.656,1.019,4.604,0.838,7.826c-0.102,1.809-0.552,4.478-1.701,7.616
			c-1.402,3.828-0.763,6.083-1.395,6.778c-2.545,2.801-9.643,0.094-9.966,3.917c-0.199,2.36,1.581,2.901,1.273,5.659
			c-0.399,3.575-11.833,0.977-15.148-1.006c-0.452-0.27-4.531-3.28-3.836-7.435c0.371-2.22,2.854-12.594,2.748-13.956
			c-0.385-4.924-2.815-5.658-4.426-11.675c-0.998-3.727,0.216-6.78,2.014-8.775C168.615,132.348,173.952,130.504,176.749,130.368z"
			/>
		
			<ellipse transform="matrix(0.0559 -0.9984 0.9984 0.0559 31.8172 336.0736)" style="fill:#0A0709;" cx="193.609" cy="151.213" rx="1.236" ry="0.994"/>
		
			<ellipse transform="matrix(0.0559 -0.9984 0.9984 0.0559 23.869 326.6672)" style="fill:#0A0709;" cx="184.661" cy="150.713" rx="1.236" ry="0.994"/>
		
			<path style="fill:none;stroke:#1E1D22;stroke-width:1.2546;stroke-linecap:round;stroke-linejoin:round;stroke-miterlimit:10;" d="
			M195.754,148.489c0,0-2.97-2.515-6.708-0.375"/>
		
			<path style="fill:none;stroke:#1E1D22;stroke-width:1.2546;stroke-linecap:round;stroke-linejoin:round;stroke-miterlimit:10;" d="
			M186.481,147.97c0,0-2.97-2.515-6.708-0.375"/>
		<g>
			<path style="fill:#DD765E;" d="M188.145,148.947c-0.144,1.036-0.034,2.085,0.375,3.019c0.417,0.951,0.784,1.923,1.409,2.728
				l0.468,0.625c0.167,0.207,0.316,0.55,0.274,0.854c-0.066,0.625-0.477,1.076-0.923,1.391c-0.958,0.634-2.135,0.534-3.111,0.219
				c1.012,0.154,2.14,0.127,2.921-0.478c0.365-0.307,0.715-0.717,0.733-1.156c0.056-0.418-0.4-0.764-0.701-1.209
				c-0.633-0.876-1.016-1.879-1.371-2.86C187.853,151.071,187.83,149.945,188.145,148.947z"/>
		</g>
		<g>
			<g>
				<path style="fill:#DD765E;" d="M171.861,148.455c-0.359,0.092-0.678,0.241-0.977,0.417c-0.297,0.179-0.581,0.377-0.831,0.619
					c-0.536,0.446-0.962,1.008-1.459,1.562c0.102-0.359,0.261-0.695,0.457-1.014c0.204-0.313,0.447-0.603,0.725-0.861
					C170.346,148.701,171.104,148.307,171.861,148.455z"/>
			</g>
			<g>
				<path style="fill:#DD765E;" d="M170.767,153.556c0.128-0.786,0.209-1.543,0.103-2.293c-0.025-0.376-0.107-0.746-0.215-1.11
					c-0.094-0.372-0.251-0.723-0.388-1.103c0.282,0.284,0.523,0.617,0.689,0.99c0.18,0.368,0.268,0.774,0.329,1.178
					C171.353,152.031,171.224,152.883,170.767,153.556z"/>
			</g>
		</g>
		<path style="fill:#1E1D22;" d="M176.58,158.495c0,0-1.247-7.189-0.832-9.204c0.578-2.808,0.867-4.212,0.592-5.383
			c-0.44-1.875,0.473-2.064,1.739-3.982c1.189-1.799,4.466-0.106,5.322-0.369c2.403-0.739,2.371-1.735,3.968-1.745
			c1.638-0.01,2.86-0.374,3.856,0.738c1.015,1.135,2.829,4.103,3.343,3.634c0.862-0.785,1.898-3.063,2.083-4.587
			c0.242-1.997-0.505-3.889-0.886-4.883c-0.338-0.881-1.598-4.162-4.546-5.183c-1.698-0.589-2.076,0.224-5.82,0.236
			c-3.884,0.013-3.956-0.86-6.016-0.397c-2.28,0.512-2.255,1.595-6.207,3.475c-1.234,0.587-2.161,0.92-4.017,1.586
			c-4.929,1.77-5.54,1.408-6.708,2.416c-2.516,2.173-2.348,6.162-2.308,7.125c0.114,2.713,1.123,3.583,3.172,8.034
			c3.246,7.049,2.357,9.884,3.633,10.919c0.626,0.507,4.205-1.747,4.256-2.953c0.068-1.582-1.043-2.144-2.256-4.503
			c-0.847-1.649-2.064-4.016-1.174-6.051c0.539-1.23,1.042-0.857,2.337-0.663c1.757,0.263,2.488,2.771,3.095,4.617
			c0.439,1.336,0.578,2.749,0.416,4.146C173.261,158.632,177.119,159.773,176.58,158.495z"/>
		<g>
			<path style="fill:#DD765E;" d="M184.333,162.029c1.262,0.655,2.458,1.202,3.691,1.318c0.612,0.081,1.226,0.016,1.836-0.153
				c0.626-0.144,1.209-0.459,1.876-0.75c-0.384,0.597-0.906,1.152-1.59,1.476c-0.324,0.205-0.704,0.274-1.073,0.384
				c-0.381,0.045-0.766,0.081-1.148,0.038c-0.761-0.086-1.485-0.353-2.096-0.761C185.218,163.176,184.684,162.663,184.333,162.029z"
				/>
		</g>
		<path style="fill:#6C7FD8;" d="M226.329,461.301c2.065-3.308,0.577-7.355-3.362-9.197l-16.57-7.747
			c-0.613-0.25-1.357-0.105-1.768,0.344l-5.905,6.463c-0.434,0.475-1.236,0.606-1.859,0.303l-6.965-3.389
			c-0.945-0.46-2.143,0.099-2.141,0.999l0.034,11.007c0.002,0.639,0.637,1.155,1.419,1.153l37.11,0.075
			C226.323,461.311,226.325,461.308,226.329,461.301z"/>
		<path style="fill:#6C7FD8;" d="M173.68,461.301c2.065-3.308,0.577-7.355-3.362-9.197l-16.57-7.747
			c-0.613-0.25-1.357-0.105-1.768,0.344l-5.905,6.463c-0.434,0.475-1.236,0.606-1.859,0.303l-6.965-3.389
			c-0.945-0.46-2.143,0.099-2.141,0.999l0.034,11.007c0.002,0.639,0.637,1.155,1.419,1.153l37.11,0.075
			C173.673,461.311,173.675,461.308,173.68,461.301z"/>
		<path style="fill:#1E1D22;" d="M188.24,158.003c2.116,0.045,2.571-0.988,5.945,4.025c0,0-4.024-1.509-12.259,0
			C181.925,162.029,185.21,157.939,188.24,158.003z"/>
	</g>
	<g>
		<path style="fill:#935B50;" d="M517.208,223.473v237.935H571V223.473c0-1.426-1.156-2.581-2.581-2.581h-48.63
			C518.363,220.892,517.208,222.048,517.208,223.473z"/>
		<path style="fill:#E19974;" d="M565.45,299.722h-42.693c-1.426,0-2.581-1.156-2.581-2.581V266.76c0-1.426,1.156-2.581,2.581-2.581
			h42.693c1.426,0,2.581,1.156,2.581,2.581v30.381C568.032,298.566,566.876,299.722,565.45,299.722z"/>
		<path style="fill:#E19974;" d="M565.45,260.307h-42.693c-1.426,0-2.581-1.156-2.581-2.581v-30.381
			c0-1.426,1.156-2.581,2.581-2.581h42.693c1.426,0,2.581,1.156,2.581,2.581v30.381C568.032,259.151,566.876,260.307,565.45,260.307
			z"/>
		<g>
			<g>
				<path style="fill:#D6694B;" d="M564.992,255.796c0.815,0.614,0.644,1.714,0.047,2.3c-0.584,0.599-1.686,0.773-2.3-0.047
					c0.291-0.421,0.441-0.679,0.561-0.898c0.12-0.209,0.207-0.354,0.325-0.469C563.867,256.436,564.181,256.364,564.992,255.796z"/>
			</g>
			<g>
				<path style="fill:#D6694B;" d="M562.739,227.021c0.614-0.815,1.714-0.644,2.3-0.047c0.599,0.584,0.773,1.686-0.047,2.3
					c-0.421-0.291-0.679-0.441-0.898-0.561c-0.209-0.12-0.354-0.206-0.469-0.325C563.379,228.146,563.306,227.832,562.739,227.021z"
					/>
			</g>
			<g>
				<path style="fill:#D6694B;" d="M523.216,229.275c-0.815-0.614-0.644-1.714-0.047-2.3c0.584-0.599,1.686-0.773,2.3,0.047
					c-0.291,0.421-0.441,0.679-0.561,0.898c-0.12,0.209-0.207,0.354-0.325,0.469C524.341,228.634,524.027,228.707,523.216,229.275z"
					/>
			</g>
			<g>
				<path style="fill:#D6694B;" d="M525.469,258.049c-0.614,0.815-1.714,0.644-2.3,0.047c-0.599-0.584-0.773-1.686,0.047-2.3
					c0.421,0.291,0.679,0.441,0.898,0.561c0.209,0.12,0.354,0.206,0.469,0.325C524.829,256.924,524.901,257.238,525.469,258.049z"/>
			</g>
		</g>
		<g>
			<g>
				<path style="fill:#D6694B;" d="M564.992,295.211c0.815,0.614,0.644,1.714,0.047,2.3c-0.584,0.599-1.686,0.773-2.3-0.047
					c0.291-0.421,0.441-0.679,0.561-0.898c0.12-0.209,0.207-0.354,0.325-0.469C563.867,295.851,564.181,295.779,564.992,295.211z"/>
			</g>
			<g>
				<path style="fill:#D6694B;" d="M562.739,266.436c0.614-0.815,1.714-0.644,2.3-0.047c0.599,0.584,0.773,1.686-0.047,2.3
					c-0.421-0.291-0.679-0.441-0.898-0.561c-0.209-0.12-0.354-0.207-0.469-0.325C563.379,267.561,563.306,267.247,562.739,266.436z"
					/>
			</g>
			<g>
				<path style="fill:#D6694B;" d="M523.216,268.69c-0.815-0.614-0.644-1.714-0.047-2.3c0.584-0.599,1.686-0.773,2.3,0.047
					c-0.291,0.421-0.441,0.679-0.561,0.898c-0.12,0.209-0.207,0.354-0.325,0.469C524.341,268.049,524.027,268.122,523.216,268.69z"
					/>
			</g>
			<g>
				<path style="fill:#D6694B;" d="M525.469,297.464c-0.614,0.815-1.714,0.644-2.3,0.047c-0.599-0.584-0.773-1.686,0.047-2.3
					c0.421,0.291,0.679,0.441,0.898,0.561c0.209,0.12,0.354,0.207,0.469,0.325C524.829,296.339,524.901,296.653,525.469,297.464z"/>
			</g>
		</g>
		<path style="fill:#E19974;" d="M565.45,378.551h-42.693c-1.426,0-2.581-1.156-2.581-2.581V345.59c0-1.426,1.156-2.581,2.581-2.581
			h42.693c1.426,0,2.581,1.156,2.581,2.581v30.381C568.032,377.396,566.876,378.551,565.45,378.551z"/>
		<path style="fill:#E19974;" d="M565.45,417.966h-42.693c-1.426,0-2.581-1.156-2.581-2.581v-30.381
			c0-1.426,1.156-2.581,2.581-2.581h42.693c1.426,0,2.581,1.156,2.581,2.581v30.381C568.032,416.811,566.876,417.966,565.45,417.966
			z"/>
		<g>
			<path style="fill:#D6694B;" d="M550.46,243.116h-12.713c-0.552,0-1-0.448-1-1v-3.421c0-0.552,0.448-1,1-1h12.713
				c0.552,0,1,0.448,1,1v3.421C551.46,242.668,551.013,243.116,550.46,243.116z"/>
		</g>
		<g>
			<path style="fill:#D6694B;" d="M550.46,361.361h-12.713c-0.552,0-1-0.448-1-1v-3.421c0-0.552,0.448-1,1-1h12.713
				c0.552,0,1,0.448,1,1v3.421C551.46,360.913,551.013,361.361,550.46,361.361z"/>
		</g>
		<g>
			<path style="fill:#D6694B;" d="M550.46,400.775h-12.713c-0.552,0-1-0.448-1-1v-3.421c0-0.552,0.448-1,1-1h12.713
				c0.552,0,1,0.448,1,1v3.421C551.46,400.328,551.013,400.775,550.46,400.775z"/>
		</g>
		<g>
			<path style="fill:#D6694B;" d="M550.46,282.531h-12.713c-0.552,0-1-0.448-1-1v-3.421c0-0.552,0.448-1,1-1h12.713
				c0.552,0,1,0.448,1,1v3.421C551.46,282.083,551.013,282.531,550.46,282.531z"/>
		</g>
		<g>
			<g>
				<path style="fill:#D6694B;" d="M564.992,374.04c0.815,0.614,0.644,1.714,0.047,2.3c-0.584,0.599-1.686,0.773-2.3-0.047
					c0.291-0.421,0.441-0.679,0.561-0.898c0.12-0.209,0.207-0.354,0.325-0.469C563.867,374.681,564.181,374.608,564.992,374.04z"/>
			</g>
			<g>
				<path style="fill:#D6694B;" d="M562.739,345.266c0.614-0.815,1.714-0.644,2.3-0.047c0.599,0.584,0.773,1.686-0.047,2.3
					c-0.421-0.291-0.679-0.441-0.898-0.561c-0.209-0.12-0.354-0.207-0.469-0.325C563.379,346.391,563.306,346.077,562.739,345.266z"
					/>
			</g>
			<g>
				<path style="fill:#D6694B;" d="M523.216,347.519c-0.815-0.614-0.644-1.714-0.047-2.3c0.584-0.599,1.686-0.773,2.3,0.047
					c-0.291,0.421-0.441,0.679-0.561,0.898c-0.12,0.209-0.207,0.354-0.325,0.469C524.341,346.879,524.027,346.951,523.216,347.519z"
					/>
			</g>
			<g>
				<path style="fill:#D6694B;" d="M525.469,376.294c-0.614,0.815-1.714,0.644-2.3,0.047c-0.599-0.584-0.773-1.686,0.047-2.3
					c0.421,0.291,0.679,0.441,0.898,0.561c0.209,0.12,0.354,0.207,0.469,0.325C524.829,375.169,524.901,375.483,525.469,376.294z"/>
			</g>
		</g>
		<g>
			<g>
				<path style="fill:#D6694B;" d="M564.992,413.455c0.815,0.614,0.644,1.714,0.047,2.3c-0.584,0.599-1.686,0.773-2.3-0.047
					c0.291-0.421,0.441-0.679,0.561-0.898c0.12-0.209,0.207-0.354,0.325-0.469C563.867,414.096,564.181,414.023,564.992,413.455z"/>
			</g>
			<g>
				<path style="fill:#D6694B;" d="M562.739,384.681c0.614-0.815,1.714-0.644,2.3-0.047c0.599,0.584,0.773,1.686-0.047,2.3
					c-0.421-0.291-0.679-0.441-0.898-0.561c-0.209-0.12-0.354-0.207-0.469-0.325C563.379,385.806,563.306,385.492,562.739,384.681z"
					/>
			</g>
			<g>
				<path style="fill:#D6694B;" d="M523.216,386.934c-0.815-0.614-0.644-1.714-0.047-2.3c0.584-0.599,1.686-0.773,2.3,0.047
					c-0.291,0.421-0.441,0.679-0.561,0.898c-0.12,0.209-0.207,0.354-0.325,0.469C524.341,386.294,524.027,386.366,523.216,386.934z"
					/>
			</g>
			<g>
				<path style="fill:#D6694B;" d="M525.469,415.709c-0.614,0.815-1.714,0.644-2.3,0.047c-0.599-0.584-0.773-1.686,0.047-2.3
					c0.421,0.291,0.679,0.441,0.898,0.561c0.209,0.12,0.354,0.207,0.469,0.325C524.829,414.584,524.901,414.898,525.469,415.709z"/>
			</g>
		</g>
		<g>
			<path style="fill:#7CA1B1;" d="M532.814,404.689c0,0,26.257,0.533,30.246-3.904c0,0-8.599,30.807-2.107,45.922l-29.204-3.084
				C531.749,443.622,535.164,419.763,532.814,404.689z"/>
			<path style="fill:#F65B2B;" d="M526.385,408.463c0,0,26.257,0.533,30.246-3.904c0,0-8.598,30.807-2.107,45.922l-29.204-3.084
				C525.32,447.396,528.735,423.537,526.385,408.463z"/>
			<path style="fill:#FFFFFF;" d="M529.669,411.363c0,0,26.257,0.533,30.246-3.904c0,0-8.599,30.807-2.107,45.922l-29.204-3.084
				C528.604,450.296,532.019,426.437,529.669,411.363z"/>
		</g>
		<g>
			<path style="fill:#FFBA55;" d="M532.884,288.29c0,0,26.257,0.533,30.246-3.904c0,0-8.598,30.807-2.107,45.922l-29.204-3.084
				C531.819,327.224,535.234,303.364,532.884,288.29z"/>
			<path style="fill:#F65B2B;" d="M526.455,292.064c0,0,26.257,0.533,30.246-3.904c0,0-8.598,30.807-2.107,45.922l-29.204-3.084
				C525.39,330.998,528.805,307.139,526.455,292.064z"/>
			<path style="fill:#FFFFFF;" d="M529.739,294.964c0,0,26.257,0.533,30.246-3.904c0,0-8.599,30.807-2.107,45.922l-29.204-3.084
				C528.674,333.898,532.089,310.039,529.739,294.964z"/>
		</g>
		<g>
			<path style="fill:#E19974;" d="M565.45,457.381h-42.693c-1.426,0-2.581-1.156-2.581-2.581v-30.381
				c0-1.426,1.156-2.581,2.581-2.581h42.693c1.426,0,2.581,1.156,2.581,2.581V454.8C568.032,456.225,566.876,457.381,565.45,457.381
				z"/>
			<g>
				<path style="fill:#D6694B;" d="M550.46,440.19h-12.713c-0.552,0-1-0.448-1-1v-3.421c0-0.552,0.448-1,1-1h12.713
					c0.552,0,1,0.448,1,1v3.421C551.46,439.743,551.013,440.19,550.46,440.19z"/>
			</g>
			<g>
				<g>
					<path style="fill:#D6694B;" d="M564.992,452.87c0.815,0.614,0.644,1.714,0.047,2.3c-0.584,0.599-1.686,0.773-2.3-0.047
						c0.291-0.421,0.441-0.679,0.561-0.898c0.12-0.209,0.207-0.354,0.325-0.469C563.867,453.51,564.181,453.438,564.992,452.87z"/>
				</g>
				<g>
					<path style="fill:#D6694B;" d="M562.739,424.096c0.614-0.815,1.714-0.644,2.3-0.047c0.599,0.584,0.773,1.686-0.047,2.3
						c-0.421-0.291-0.679-0.441-0.898-0.561c-0.209-0.12-0.354-0.207-0.469-0.325C563.379,425.221,563.306,424.907,562.739,424.096z
						"/>
				</g>
				<g>
					<path style="fill:#D6694B;" d="M523.216,426.349c-0.815-0.614-0.644-1.714-0.047-2.3c0.584-0.599,1.686-0.773,2.3,0.047
						c-0.291,0.421-0.441,0.679-0.561,0.898c-0.12,0.209-0.207,0.354-0.325,0.469C524.341,425.709,524.027,425.781,523.216,426.349z
						"/>
				</g>
				<g>
					<path style="fill:#D6694B;" d="M525.469,455.123c-0.614,0.815-1.714,0.644-2.3,0.047c-0.599-0.584-0.773-1.686,0.047-2.3
						c0.421,0.291,0.679,0.441,0.898,0.561c0.209,0.12,0.354,0.207,0.469,0.325C524.829,453.999,524.901,454.312,525.469,455.123z"
						/>
				</g>
			</g>
		</g>
		<g>
			<path style="fill:#E19974;" d="M565.45,339.137h-42.693c-1.426,0-2.581-1.156-2.581-2.581v-30.381
				c0-1.426,1.156-2.581,2.581-2.581h42.693c1.426,0,2.581,1.156,2.581,2.581v30.381
				C568.032,337.981,566.876,339.137,565.45,339.137z"/>
			<g>
				<path style="fill:#D6694B;" d="M550.46,321.946h-12.713c-0.552,0-1-0.448-1-1v-3.421c0-0.552,0.448-1,1-1h12.713
					c0.552,0,1,0.448,1,1v3.421C551.46,321.498,551.013,321.946,550.46,321.946z"/>
			</g>
			<g>
				<g>
					<path style="fill:#D6694B;" d="M564.992,334.626c0.815,0.614,0.644,1.714,0.047,2.3c-0.584,0.599-1.686,0.773-2.3-0.047
						c0.291-0.421,0.441-0.679,0.561-0.898c0.12-0.209,0.207-0.354,0.325-0.469C563.867,335.266,564.181,335.193,564.992,334.626z"
						/>
				</g>
				<g>
					<path style="fill:#D6694B;" d="M562.739,305.851c0.614-0.815,1.714-0.644,2.3-0.047c0.599,0.584,0.773,1.686-0.047,2.3
						c-0.421-0.291-0.679-0.441-0.898-0.561c-0.209-0.12-0.354-0.207-0.469-0.325C563.379,306.976,563.306,306.662,562.739,305.851z
						"/>
				</g>
				<g>
					<path style="fill:#D6694B;" d="M523.216,308.104c-0.815-0.614-0.644-1.714-0.047-2.3c0.584-0.599,1.686-0.773,2.3,0.047
						c-0.291,0.421-0.441,0.679-0.561,0.898c-0.12,0.209-0.207,0.354-0.325,0.469C524.341,307.464,524.027,307.537,523.216,308.104z
						"/>
				</g>
				<g>
					<path style="fill:#D6694B;" d="M525.469,336.879c-0.614,0.815-1.714,0.644-2.3,0.047c-0.599-0.584-0.773-1.686,0.047-2.3
						c0.421,0.291,0.679,0.441,0.898,0.561c0.209,0.12,0.354,0.207,0.469,0.325C524.829,335.754,524.901,336.068,525.469,336.879z"
						/>
				</g>
			</g>
		</g>
	</g>
	<line style="fill:none;stroke:#935B50;stroke-width:2;stroke-miterlimit:10;" x1="100" y1="461.408" x2="600" y2="461.408"/>
</g>
</svg>
