<svg xmlns="http://www.w3.org/2000/svg" enable-background="new 0 0 24 24" viewBox="0 0 24 24"><path fill="#303c42" d="M12.022,12.352c-0.082,0.264,0.066,0.543,0.33,0.625C12.401,12.993,12.451,13,12.5,13 c0.214,0,0.412-0.138,0.478-0.353c0.171-0.552,0.364-1.06,0.571-1.547c0.71,0.585,1.503,0.9,2.371,0.9C19.842,12,23,6.688,23,2.289 C23,1.578,22.421,1,21.71,1C17.312,1,12,4.158,12,8.08c0,0.821,0.279,1.575,0.804,2.257C12.514,10.966,12.247,11.625,12.022,12.352 z"/><path fill="#7cb342" d="M13,8.08C13,4.806,17.79,2,21.71,2C21.87,2,22,2.13,22,2.289C22,6.21,19.194,11,15.919,11 c-0.707,0-1.357-0.287-1.938-0.838c1.19-2.275,2.95-3.84,5.739-5.213c0.248-0.122,0.35-0.422,0.228-0.669 c-0.123-0.248-0.423-0.349-0.669-0.228c-2.803,1.38-4.665,3.011-5.953,5.262C13.118,8.924,13,8.514,13,8.08z"/><path fill="#fff" d="M21.71,2.5c0.141,0,0.244,0.108,0.27,0.242C21.988,2.591,22,2.439,22,2.289 C22,2.13,21.87,2,21.71,2C17.79,2,13,4.806,13,8.08c0,0.069,0.021,0.133,0.027,0.201C13.308,5.137,17.91,2.5,21.71,2.5z" opacity=".2"/><path fill="#303c42" d="M21,16.5c-0.976,0-3,0.544-4.026,0.838C16.838,15.904,15,15.396,13.1,15.01 c-0.867-0.176-1.513-0.487-2.137-0.788C10.193,13.851,9.467,13.5,8.5,13.5c-1.107,0-2.116,0.226-2.685,0.383 c-0.151-0.524-0.578-0.946-1.145-1.059L0.598,12.01c-0.146-0.029-0.299,0.009-0.415,0.104C0.067,12.209,0,12.35,0,12.5v8 C0,20.777,0.224,21,0.5,21h3.133c0.617,0,1.144-0.393,1.37-0.944C6.123,20.59,11.301,23,13.5,23c1.939,0,5.933-1.963,8.574-3.262 c0.688-0.338,1.258-0.619,1.627-0.78C23.883,18.878,24,18.698,24,18.5C24,17.322,22.767,16.5,21,16.5z"/><path fill="#546e7a" d="M3.633,20H1v-6.89l3.475,0.695c0.26,0.052,0.435,0.298,0.396,0.561l-0.743,5.205 C4.093,19.816,3.88,20,3.633,20z"/><path fill="#ffe082" d="M21.633,18.841C19.229,20.023,15.207,22,13.5,22c-1.818,0-6.595-2.129-8.281-2.95 c-0.002-0.001-0.004-0.001-0.006-0.001l0.588-4.12C6.166,14.815,7.279,14.5,8.5,14.5c0.738,0,1.308,0.275,2.029,0.623 c0.647,0.313,1.382,0.667,2.371,0.868c2.173,0.44,3.1,0.892,3.1,1.51c0,0.122-0.037,0.197-0.132,0.268 c-0.318,0.238-1.56,0.637-6.226-0.748c-0.269-0.077-0.544,0.073-0.622,0.337s0.072,0.543,0.337,0.622 c2.304,0.683,4.064,1.023,5.313,1.023c0.813,0,1.41-0.145,1.796-0.433c0.033-0.025,0.15-0.082,0.182-0.091 C17.531,18.206,20.036,17.5,21,17.5c0.815,0,1.674,0.248,1.926,0.713C22.577,18.377,22.137,18.594,21.633,18.841z"/><linearGradient id="a" x1="4.639" x2="11.499" y1="16.183" y2="23.043" gradientUnits="userSpaceOnUse"><stop offset="0" stop-opacity=".1"/><stop offset="1" stop-opacity="0"/></linearGradient><path fill="url(#a)" d="M5.786,15.037l-0.573,4.012c0.002,0.001,0.004,0.001,0.006,0.001 c1.466,0.713,5.264,2.413,7.427,2.846L5.786,15.037z"/><linearGradient id="b" x1="2.531" x2="24.628" y1="6.961" y2="17.265" gradientUnits="userSpaceOnUse"><stop offset="0" stop-color="#fff" stop-opacity=".2"/><stop offset="1" stop-color="#fff" stop-opacity="0"/></linearGradient><path fill="url(#b)" d="M21,16.5c-0.976,0-3,0.544-4.026,0.838C16.838,15.904,15,15.396,13.1,15.01 c-0.867-0.176-1.513-0.487-2.137-0.788C10.193,13.851,9.467,13.5,8.5,13.5c-1.107,0-2.116,0.226-2.685,0.383 c-0.151-0.524-0.578-0.946-1.145-1.059L0.598,12.01c-0.146-0.029-0.299,0.009-0.415,0.104C0.067,12.209,0,12.35,0,12.5v8 C0,20.777,0.224,21,0.5,21h3.133c0.617,0,1.144-0.393,1.37-0.944C6.123,20.59,11.301,23,13.5,23c1.939,0,5.933-1.963,8.574-3.262 c0.688-0.338,1.258-0.619,1.627-0.78C23.883,18.878,24,18.698,24,18.5C24,17.322,22.767,16.5,21,16.5z M12.022,12.352 c-0.082,0.264,0.066,0.543,0.33,0.625C12.401,12.993,12.451,13,12.5,13c0.214,0,0.412-0.138,0.478-0.353 c0.171-0.552,0.364-1.06,0.571-1.547c0.71,0.585,1.503,0.9,2.371,0.9C19.842,12,23,6.688,23,2.289C23,1.578,22.421,1,21.71,1 C17.312,1,12,4.158,12,8.08c0,0.821,0.279,1.575,0.804,2.257C12.514,10.966,12.247,11.625,12.022,12.352z"/></svg>